<?xml version="1.0" standalone="no"?>
<!DOCTYPE svg PUBLIC "-//W3C//DTD SVG 20010904//EN"
 "http://www.w3.org/TR/2001/REC-SVG-20010904/DTD/svg10.dtd">
<svg version="1.0" xmlns="http://www.w3.org/2000/svg"
 width="1280.000000pt" height="1057.000000pt" viewBox="0 0 1280.000000 1057.000000"
 preserveAspectRatio="xMidYMid meet">
<metadata>
Created by potrace 1.15, written by Peter Selinger 2001-2017
</metadata>
<g transform="translate(0.000000,1057.000000) scale(0.100000,-0.100000)"
fill="#f3f3f3" stroke="none">
<path d="M5630 10564 c-128 -16 -292 -49 -329 -65 -24 -10 -70 -44 -103 -75
-34 -30 -84 -66 -113 -79 -29 -12 -60 -33 -69 -46 -19 -28 -23 -23 73 -78 71
-40 225 -160 217 -168 -8 -8 -105 43 -220 117 -83 54 -99 60 -112 49 -14 -11
-15 -25 -9 -79 4 -36 6 -88 6 -116 -1 -35 3 -55 14 -64 22 -18 19 -36 -15 -71
-17 -18 -32 -47 -35 -68 -13 -79 -17 -91 -36 -116 -12 -14 -31 -25 -44 -25
-13 0 -35 -5 -48 -11 -20 -9 -43 -6 -126 20 -97 30 -113 40 -153 89 -13 16
-29 22 -60 22 -76 0 -221 -19 -231 -29 -8 -8 -18 -4 -33 10 -21 20 -27 21 -70
10 -128 -32 -214 -113 -295 -274 -27 -57 -53 -122 -56 -145 -5 -39 -2 -47 40
-102 25 -32 55 -76 66 -97 10 -21 29 -44 40 -51 25 -15 29 -67 5 -76 -25 -9
-31 -8 -62 19 l-29 24 -79 -51 c-55 -36 -152 -124 -317 -287 -204 -202 -244
-246 -279 -311 -86 -158 -193 -340 -269 -456 -43 -66 -82 -134 -85 -151 -3
-18 -1 -55 6 -83 l12 -52 -50 -51 c-59 -62 -72 -85 -72 -129 0 -37 -11 -55
-86 -145 -54 -63 -77 -120 -120 -298 -24 -96 -23 -311 0 -420 38 -171 71 -254
141 -346 113 -151 213 -230 345 -274 127 -42 387 -230 352 -253 -8 -5 -75 -19
-150 -31 -170 -26 -218 -39 -204 -53 11 -11 328 -27 560 -27 139 -1 142 -2
142 -23 0 -11 -12 -37 -27 -57 -16 -19 -30 -47 -33 -61 -4 -19 -23 -34 -84
-66 -50 -25 -87 -52 -100 -71 -20 -30 -22 -30 -125 -37 -251 -15 -537 -64
-719 -121 l-112 -36 -220 71 c-121 38 -227 70 -235 70 -20 0 -19 -13 5 -61 35
-69 59 -78 490 -194 320 -87 366 -101 417 -130 23 -14 49 -25 58 -25 26 0 29
-29 5 -55 -13 -13 -45 -32 -73 -41 -45 -15 -51 -21 -74 -70 -13 -29 -28 -56
-32 -59 -5 -2 -47 8 -93 24 -46 17 -113 36 -149 45 -35 8 -185 53 -334 100
-452 143 -688 205 -775 206 -47 0 -60 15 -60 70 0 56 -3 60 -65 87 -85 38
-134 47 -154 29 -10 -9 -26 -16 -37 -16 -11 0 -30 -7 -42 -16 -18 -13 -22 -25
-22 -73 0 -38 -8 -75 -21 -106 -17 -38 -20 -62 -17 -117 3 -64 7 -73 36 -99
38 -34 81 -46 197 -55 106 -7 230 8 284 35 l38 20 644 -185 c354 -102 655
-191 669 -197 28 -14 37 -30 86 -149 42 -102 30 -96 312 -183 l184 -57 26 25
c51 47 105 67 214 76 97 9 104 8 121 -11 9 -11 17 -26 17 -33 0 -7 -33 -27
-72 -45 -99 -44 -132 -68 -118 -86 7 -7 9 -18 5 -24 -3 -6 -67 -40 -140 -75
-124 -60 -136 -68 -156 -107 -26 -52 -36 -151 -19 -202 10 -31 16 -36 42 -36
17 0 55 -15 87 -34 76 -46 135 -64 231 -72 87 -7 92 -11 103 -72 12 -63 -25
-80 -307 -137 -155 -31 -180 -39 -315 -103 -80 -39 -193 -84 -251 -102 -126
-38 -284 -97 -816 -303 -425 -165 -596 -227 -622 -227 -10 0 -24 5 -32 10 -12
8 -11 13 8 33 19 20 22 34 22 101 0 115 -21 140 -77 92 -26 -23 -27 -26 -16
-57 17 -45 5 -55 -51 -39 -42 12 -48 11 -88 -13 -79 -46 -103 -101 -110 -244
-2 -48 2 -77 10 -85 17 -17 15 -31 -8 -61 -20 -25 -20 -25 1 -38 21 -15 38
-71 39 -128 0 -31 -2 -33 -30 -29 -37 6 -53 -11 -48 -49 2 -18 11 -32 26 -38
18 -8 22 -15 17 -35 -24 -104 -15 -143 40 -166 50 -21 61 -18 105 26 56 56 53
74 -17 108 -42 20 -58 33 -58 47 0 17 8 20 50 23 57 3 98 -14 103 -43 2 -11 9
-25 17 -30 8 -7 11 -27 8 -62 -5 -49 -7 -52 -52 -76 -86 -47 -129 -84 -133
-114 l-4 -28 -47 48 -47 47 -71 -15 c-79 -16 -84 -18 -74 -35 7 -12 39 -10
108 6 20 5 27 2 27 -8 0 -21 -54 -102 -136 -205 -77 -96 -100 -111 -179 -116
-36 -2 -40 0 -43 24 -2 18 7 36 33 63 19 20 35 40 35 42 0 3 -15 4 -33 2 -32
-3 -32 -3 -35 45 -3 39 1 53 23 79 42 49 115 105 146 112 32 6 39 30 12 40
-12 5 -14 9 -5 18 7 7 12 18 12 25 0 25 -26 13 -70 -32 -53 -54 -90 -61 -90
-17 0 41 28 117 51 138 10 9 19 28 19 42 0 23 1 24 17 10 17 -15 117 -68 128
-68 3 0 5 9 5 19 0 18 -23 41 -99 99 l-25 19 23 63 c22 59 23 88 6 132 -5 13
0 20 18 27 14 5 37 26 53 46 23 30 29 34 36 21 13 -23 41 -20 65 7 45 48 54
97 18 97 -19 0 -19 5 5 75 11 32 20 78 20 102 0 38 4 45 26 53 51 20 114 72
134 110 22 44 32 49 77 42 18 -2 53 1 77 8 38 10 48 10 67 -4 13 -9 32 -16 42
-16 25 0 88 33 111 59 11 12 23 21 28 21 17 0 433 223 488 261 31 22 63 39 72
39 9 0 61 21 115 46 266 125 540 235 763 309 63 20 121 43 128 50 22 20 -156
181 -289 260 -220 131 -395 176 -683 176 -178 0 -295 -18 -405 -62 -113 -46
-261 -99 -305 -110 -53 -13 -86 -32 -120 -68 -17 -17 -38 -31 -49 -31 -26 0
-54 -16 -112 -65 -27 -23 -72 -52 -98 -64 -31 -15 -57 -37 -73 -63 -14 -21
-33 -41 -42 -44 -61 -19 -84 -36 -101 -77 -13 -29 -30 -49 -57 -64 -48 -27
-89 -69 -103 -105 -7 -20 -18 -28 -34 -28 -35 0 -75 -36 -87 -78 -13 -49 -18
-54 -68 -82 -54 -30 -82 -74 -75 -117 5 -29 2 -33 -30 -47 -39 -16 -57 -41
-57 -81 0 -19 -7 -28 -27 -36 -67 -25 -130 -120 -112 -167 12 -32 -10 -67 -56
-89 -35 -17 -65 -64 -65 -101 0 -12 -11 -42 -25 -67 -16 -31 -24 -62 -23 -91
0 -40 -4 -50 -39 -83 -21 -21 -45 -56 -52 -79 -13 -39 -13 -42 13 -72 14 -17
26 -36 26 -41 0 -5 -18 -20 -40 -34 -57 -36 -64 -54 -57 -163 5 -84 3 -98 -19
-145 -13 -29 -26 -71 -30 -95 -6 -40 -4 -46 26 -77 l33 -34 -27 -32 c-24 -28
-27 -39 -24 -93 3 -60 4 -61 41 -79 20 -9 37 -20 37 -23 0 -4 -14 -22 -31 -41
-25 -29 -29 -41 -24 -67 18 -85 27 -107 53 -123 15 -9 29 -18 31 -20 2 -1 4
-40 5 -85 1 -72 5 -90 31 -138 19 -34 46 -65 72 -83 25 -16 45 -38 48 -53 3
-13 7 -34 10 -47 6 -33 72 -105 98 -109 14 -2 28 -16 39 -38 9 -20 37 -55 62
-78 35 -32 53 -42 80 -42 32 0 37 -5 63 -52 22 -42 35 -54 62 -61 22 -5 43 -5
59 2 19 9 29 7 53 -10 16 -11 29 -24 29 -28 0 -15 76 -61 101 -61 14 0 36 11
49 25 13 14 27 25 32 25 4 0 20 -18 34 -40 34 -52 65 -60 118 -32 52 28 67 28
100 -3 33 -31 74 -32 135 -5 30 14 65 20 115 20 52 0 81 5 108 20 20 10 72 28
116 40 44 11 128 45 187 75 59 30 113 55 119 55 6 0 42 25 80 55 40 31 97 65
136 80 41 16 80 39 101 61 19 20 56 47 82 60 33 17 57 40 78 72 21 34 44 54
81 72 28 14 55 32 59 40 5 8 16 32 25 53 17 38 57 67 92 67 28 0 60 35 72 78
7 27 21 46 47 63 29 19 40 34 49 72 16 61 27 74 90 102 56 25 74 47 74 92 0
35 30 85 66 109 15 11 43 34 62 52 27 26 33 38 29 60 -7 34 8 62 33 62 25 0
36 22 45 85 11 85 14 94 46 110 37 20 59 68 59 129 0 55 16 93 41 99 12 3 29
28 44 61 29 66 10 53 380 258 336 187 397 218 427 218 16 0 49 -28 110 -94
163 -176 230 -184 503 -61 l120 53 150 7 c186 7 363 22 433 36 40 8 64 21 95
50 57 53 127 79 407 149 132 33 268 71 303 84 179 67 331 170 493 331 127 127
199 224 241 327 35 86 110 351 118 418 6 50 4 59 -21 95 -46 67 -64 127 -64
214 0 89 12 131 36 131 9 0 42 -16 73 -35 108 -65 177 -65 275 1 34 23 62 34
87 34 48 0 131 26 210 65 125 64 151 97 223 300 113 316 259 538 473 720 120
102 144 98 220 -38 62 -110 62 -118 5 -180 -27 -29 -64 -74 -82 -102 -18 -27
-61 -84 -95 -125 -92 -112 -134 -177 -180 -280 -9 -19 -27 -46 -39 -60 -13
-14 -34 -45 -46 -70 -13 -25 -31 -57 -41 -71 -10 -14 -21 -38 -25 -54 -4 -16
-20 -49 -35 -74 -26 -41 -89 -220 -89 -254 0 -8 -7 -20 -16 -28 -71 -59 -114
-330 -114 -719 0 -323 27 -507 81 -556 15 -14 19 -31 19 -86 0 -81 12 -109 70
-161 45 -40 45 -38 25 -127 -8 -34 37 -102 86 -130 30 -16 40 -29 45 -58 12
-68 48 -117 110 -148 49 -25 58 -35 69 -70 7 -23 19 -51 27 -63 23 -33 78 -70
120 -81 27 -8 41 -19 55 -47 26 -51 121 -108 181 -108 43 0 48 -3 79 -47 24
-34 47 -52 80 -64 43 -17 49 -17 91 -1 l46 16 45 -38 c104 -87 150 -99 213
-56 50 34 66 32 109 -15 33 -36 41 -40 85 -40 31 0 61 7 82 20 43 26 70 25
114 -5 64 -43 95 -42 241 11 42 14 54 15 88 4 48 -16 107 -5 209 40 54 24 83
30 135 30 56 0 86 8 181 45 62 25 119 45 126 45 7 -1 76 31 153 69 77 38 162
77 189 87 27 9 72 37 101 64 70 63 140 110 181 122 42 11 104 64 104 88 0 11
18 28 44 44 24 14 58 42 75 62 22 25 46 39 74 46 24 5 57 23 76 41 31 30 101
156 101 184 0 12 11 17 66 28 50 10 76 43 148 192 16 32 36 58 54 67 41 21 82
73 82 103 0 15 12 36 30 53 34 32 50 68 50 114 0 26 8 39 40 65 51 41 79 96
95 189 11 62 19 80 48 111 47 49 57 71 57 131 0 38 8 67 31 111 27 52 33 75
39 167 5 71 13 119 25 142 24 46 31 146 15 220 -12 58 -12 60 15 92 24 29 27
38 22 83 -3 28 -17 79 -31 113 -31 74 -32 92 -5 126 17 21 19 34 13 73 -9 63
-29 102 -60 113 -34 13 -39 35 -15 66 12 15 21 37 21 50 0 36 -36 124 -63 153
-17 18 -27 43 -31 80 -7 57 -49 149 -89 197 -13 16 -29 45 -36 64 -6 19 -28
56 -49 82 -104 132 -131 164 -174 211 -25 29 -69 66 -96 82 -28 17 -58 43 -67
58 -21 35 -95 83 -150 99 -22 6 -65 29 -95 52 -62 46 -151 85 -193 86 -15 0
-58 18 -95 40 -75 45 -147 70 -204 70 -21 0 -55 7 -75 15 -100 39 -385 56
-505 31 -42 -9 -104 -16 -137 -16 -37 0 -80 -8 -111 -20 -28 -11 -67 -20 -86
-20 -123 0 -544 -154 -771 -283 -54 -30 -109 -58 -123 -62 -14 -4 -46 -22 -71
-40 -57 -41 -103 -65 -123 -65 -8 0 -31 14 -51 31 -19 17 -35 26 -35 20 0 -48
358 -643 395 -657 7 -3 27 2 43 10 19 10 42 13 61 10 33 -7 41 5 16 26 -8 7
-13 15 -10 19 5 9 160 101 169 101 4 0 48 20 98 45 70 35 102 45 140 45 43 0
50 -3 58 -26 6 -14 10 -39 10 -55 0 -41 17 -36 29 9 15 53 13 97 -4 112 -8 7
-13 16 -10 20 8 13 213 63 231 56 15 -6 16 -19 12 -129 -6 -118 0 -174 16
-149 4 6 18 75 30 153 13 77 29 146 34 151 24 24 186 37 198 16 4 -7 7 -75 6
-152 l-2 -141 -32 -45 c-20 -26 -33 -58 -34 -77 -1 -37 0 -37 27 -22 14 7 24
7 33 0 7 -6 16 -8 19 -4 11 10 8 61 -3 68 -16 10 -12 21 16 35 22 12 24 16 10
26 -17 12 -21 42 -8 60 11 16 70 37 82 29 14 -9 70 44 147 138 33 40 63 67 74
67 28 0 135 -45 189 -80 26 -16 56 -30 68 -30 32 0 69 -19 153 -77 74 -51 199
-173 199 -194 0 -5 -27 -45 -61 -89 -34 -43 -58 -83 -54 -89 9 -16 19 -8 81
70 30 38 61 69 69 69 19 0 64 -56 91 -115 13 -27 37 -66 53 -85 30 -35 61
-128 61 -182 0 -15 9 -51 21 -80 17 -44 20 -66 15 -123 -8 -83 -8 -93 0 -169
6 -63 -21 -246 -37 -246 -5 0 -9 7 -9 15 0 8 -7 15 -15 15 -8 0 -86 -31 -175
-70 -88 -38 -177 -73 -198 -76 -23 -3 -72 3 -130 16 -88 21 -94 23 -110 58
-27 56 -42 60 -105 28 -30 -15 -63 -26 -73 -24 -11 2 -27 20 -37 41 -14 30
-22 37 -46 37 -17 0 -33 4 -36 10 -3 5 12 33 33 62 44 60 55 85 42 93 -6 4 -7
24 -4 47 6 35 5 40 -11 37 -28 -6 -56 -51 -61 -100 -9 -82 -13 -89 -39 -89
-25 0 -35 23 -15 35 6 4 2 22 -11 47 -23 45 -19 68 10 68 40 0 55 65 19 80
-22 8 -21 11 4 14 19 2 21 29 4 51 -14 19 -14 19 -51 0 -69 -38 -100 -85 -55
-85 26 0 37 -27 19 -45 -12 -12 -23 -12 -73 1 -86 23 -205 34 -235 22 -14 -5
-39 -21 -54 -36 -23 -22 -29 -24 -37 -12 -15 24 -12 38 14 55 33 22 62 83 46
99 -8 8 -16 5 -29 -13 -17 -23 -21 -23 -50 -11 -18 7 -39 26 -47 41 -8 16 -16
29 -18 29 -2 0 -28 -16 -56 -35 l-53 -36 -23 22 c-26 25 -28 20 39 111 28 37
64 74 82 82 23 11 34 25 39 47 3 18 4 34 2 36 -10 11 -79 -48 -106 -90 -28
-45 -73 -70 -88 -51 -4 5 -5 108 -2 229 5 235 0 398 -13 378 -4 -7 -12 -130
-17 -275 -5 -145 -13 -282 -16 -305 -11 -72 -9 -73 -182 176 -40 58 -77 108
-82 111 -5 3 0 14 11 24 19 16 20 26 17 136 -2 97 -6 123 -20 137 -10 9 -21
13 -25 9 -4 -4 -9 -52 -11 -106 -3 -59 -9 -100 -15 -100 -5 0 -30 18 -54 41
-25 22 -47 38 -50 35 -16 -15 36 -106 97 -171 36 -38 106 -128 155 -200 50
-71 109 -149 133 -174 36 -38 42 -50 37 -73 -5 -21 -3 -28 8 -28 23 0 161 -67
179 -87 59 -67 83 -192 54 -279 -17 -51 -54 -119 -61 -112 -2 2 3 24 11 48 9
25 16 81 17 126 1 69 -3 90 -24 130 -28 56 -88 101 -177 134 -61 23 -92 45
-92 67 0 7 -6 13 -14 13 -15 0 -42 -58 -76 -165 -12 -38 -30 -77 -39 -86 -9
-9 -43 -23 -76 -32 -126 -33 -138 -46 -85 -85 17 -13 30 -27 30 -33 0 -13
-119 -69 -148 -69 -17 0 -24 7 -28 29 -4 17 -24 46 -45 66 -43 40 -49 67 -24
115 l16 30 -51 0 c-27 0 -50 4 -50 9 0 16 70 71 98 76 108 21 272 98 293 138
7 12 5 24 -6 39 -8 13 -15 31 -15 41 0 24 -24 17 -29 -9 -5 -26 -19 -34 -62
-34 -92 0 -257 -72 -333 -146 -53 -50 -66 -54 -66 -20 0 32 -12 39 -36 21 -26
-20 -42 -18 -49 5 -3 11 -14 20 -24 20 -18 0 -112 54 -161 92 -36 28 -37 48
-5 78 20 19 27 21 40 10 30 -25 25 -2 -24 101 -28 57 -104 237 -169 399 -160
394 -223 536 -286 650 -29 52 -56 103 -59 113 -8 23 33 63 73 72 43 9 50 24
61 126 17 163 75 241 165 224 19 -3 34 -3 34 1 0 3 -13 22 -30 40 -46 53 -72
110 -68 152 3 33 8 40 48 59 55 27 115 39 268 54 64 5 142 17 172 25 30 9 195
89 365 179 424 223 700 360 765 379 79 23 240 20 468 -10 131 -17 252 -26 362
-27 164 -2 165 -2 213 26 101 60 139 164 80 219 -43 40 -113 71 -433 193 -162
62 -384 147 -492 189 -263 102 -269 102 -468 38 -183 -59 -301 -85 -520 -113
-176 -22 -374 -67 -571 -130 -70 -22 -140 -39 -156 -37 l-28 3 -7 104 c-9 122
-38 252 -73 324 -14 29 -54 92 -90 142 -51 72 -79 100 -136 137 -74 49 -212
112 -231 106 -6 -2 27 -34 73 -71 46 -36 120 -101 164 -142 72 -69 76 -78 26
-57 -11 4 -13 1 -6 -14 22 -53 36 -127 26 -137 -8 -8 -11 -2 -11 21 0 42 -21
50 -56 23 -39 -31 -48 -26 -24 14 28 46 13 44 -50 -6 -41 -33 -54 -38 -62 -28
-46 69 -52 124 -14 139 13 5 27 18 31 29 8 26 -12 101 -28 102 -19 2 -21 2
-44 -5 -18 -6 -22 -2 -28 23 -15 71 -127 203 -157 185 -15 -9 -8 -23 36 -73
36 -41 50 -68 81 -167 20 -66 46 -137 57 -158 11 -22 29 -70 39 -107 10 -37
29 -92 42 -121 23 -52 71 -118 86 -118 4 0 22 22 39 49 42 64 77 87 106 71 16
-8 29 -8 50 -1 35 14 57 2 85 -43 30 -47 27 -61 -24 -115 -35 -38 -45 -55 -45
-83 0 -46 -15 -58 -74 -58 l-51 1 -65 97 c-41 62 -66 90 -68 80 -5 -27 37
-168 64 -218 30 -53 26 -94 -12 -139 -37 -44 -81 -49 -133 -17 -22 15 -66 37
-96 50 -30 14 -76 39 -102 57 -67 47 -203 179 -203 198 0 9 16 38 35 66 69 96
81 201 42 352 -21 79 -22 92 -9 111 15 23 9 42 -14 42 -8 0 -12 5 -9 10 3 6
19 10 36 10 16 0 29 4 29 9 0 16 -42 41 -68 41 -48 0 -90 29 -151 103 -33 42
-70 79 -82 82 -12 4 -58 -7 -117 -28 -146 -53 -138 -52 -154 -20 -13 26 -12
31 14 71 33 48 32 48 -55 55 -45 3 -83 16 -175 62 -111 54 -123 64 -235 176
-86 88 -123 119 -142 119 -13 0 -36 5 -50 12 -22 10 -27 9 -40 -8 -18 -23 -20
-2 -3 26 10 16 9 23 -12 45 -35 37 -173 100 -250 115 -82 15 -105 30 -130 83
-30 64 -78 117 -124 137 -23 9 -56 30 -74 45 -41 34 -39 44 28 161 64 111 108
169 170 222 27 24 61 63 76 87 30 52 42 54 138 29 73 -20 254 -22 340 -4 67
14 96 38 96 80 0 25 -9 36 -47 63 -99 68 -281 205 -330 250 -66 58 -76 63
-182 94 -85 25 -111 37 -111 54 0 15 69 10 100 -6 42 -22 40 1 -2 42 -41 38
-80 58 -166 85 -97 30 -137 53 -160 93 -15 24 -29 35 -44 35 -13 0 -44 15 -71
34 -103 74 -225 106 -417 111 -69 2 -141 1 -160 -1z m-386 -255 c14 -17 26
-38 26 -47 -1 -13 -6 -11 -23 10 -12 15 -35 32 -50 37 -16 6 -25 15 -22 21 12
19 43 10 69 -21z m100 -19 c29 -11 32 -32 11 -70 l-13 -25 -10 25 c-13 36 -23
80 -18 80 3 0 16 -4 30 -10z m406 -100 c0 -5 -4 -10 -10 -10 -5 0 -10 5 -10
10 0 6 5 10 10 10 6 0 10 -4 10 -10z m-696 -587 c9 -25 14 -48 12 -51 -7 -7
-46 61 -46 81 0 33 18 17 34 -30z m1132 -427 c19 -19 34 -41 34 -50 0 -9 -15
-33 -33 -53 l-34 -36 -11 44 c-23 98 -25 129 -7 129 9 0 32 -15 51 -34z m158
-72 c33 -13 14 -24 -41 -24 -57 0 -64 14 -13 23 14 2 28 5 32 6 3 0 13 -2 22
-5z m96 -106 c0 -4 -7 -8 -15 -8 -10 0 -15 10 -15 28 1 26 1 26 15 8 8 -11 15
-23 15 -28z m-113 -488 c28 -34 119 -66 159 -56 17 5 29 0 41 -14 15 -17 30
-20 94 -20 94 0 123 -18 226 -136 67 -76 119 -124 206 -187 l37 -28 0 -117 0
-117 156 -156 c138 -139 154 -158 138 -167 -11 -5 -90 -35 -177 -66 l-157 -57
-57 27 c-105 49 -152 43 -222 -30 -19 -20 -39 -36 -43 -36 -13 0 -9 29 8 55
24 37 10 48 -50 40 l-51 -6 29 30 c28 29 28 29 7 43 -25 15 -27 35 -6 58 17
19 10 50 -11 50 -8 0 -14 -4 -14 -10 0 -5 -11 -17 -25 -26 -23 -15 -27 -15
-43 -2 -9 9 -29 18 -44 22 -28 6 -36 20 -19 30 16 10 -19 66 -40 66 -13 0 -19
6 -17 18 2 12 -5 18 -24 20 -22 3 -28 9 -28 27 0 17 -6 25 -22 27 -19 2 -24
10 -26 41 -2 26 2 45 13 57 15 17 9 32 -99 243 -65 127 -113 232 -110 240 3 9
12 18 20 21 18 7 44 66 44 100 0 52 68 62 107 16z m908 -157 c167 -84 185 -95
185 -101 0 -4 -20 -15 -45 -24 l-45 -17 0 29 c0 37 -23 40 -73 10 l-35 -21
-48 39 c-63 50 -156 151 -149 163 7 10 115 -29 210 -78z m525 -347 c0 -5 -16
5 -35 24 -19 19 -35 38 -35 44 0 5 16 -5 35 -24 19 -19 35 -38 35 -44z m-1420
-105 c0 -11 -31 -24 -39 -16 -3 3 1 10 9 15 19 12 30 12 30 1z m1222 -38 c20
-21 80 -101 134 -178 53 -77 139 -199 190 -271 52 -72 94 -134 94 -138 0 -17
-26 1 -107 78 -89 82 -139 111 -229 130 -28 6 -36 17 -68 87 -20 45 -36 90
-36 101 0 12 -18 61 -41 110 -33 72 -38 92 -29 103 21 25 54 17 92 -22z m366
-88 c4 -28 -37 -65 -82 -72 -33 -5 -36 -4 -36 18 0 36 49 81 85 77 21 -2 31
-9 33 -23z m-2423 -169 c87 -40 154 -89 276 -201 63 -58 150 -130 194 -160 44
-30 128 -97 187 -149 90 -79 138 -117 213 -168 14 -10 -82 -105 -195 -192
-203 -155 -384 -265 -653 -396 -178 -87 -496 -222 -507 -215 -3 2 -3 41 1 87
10 111 -4 260 -30 326 -48 120 -113 195 -242 279 -73 47 -265 143 -286 143
-20 0 -15 28 13 80 21 38 45 61 112 105 47 32 126 97 176 145 50 48 98 91 108
96 9 5 63 52 120 105 l105 96 69 6 c38 4 103 16 144 26 88 23 122 21 195 -13z
m2272 -319 c17 -16 16 -18 -5 -32 -12 -9 -75 -60 -140 -114 -134 -110 -145
-115 -412 -197 -214 -65 -266 -89 -262 -121 2 -17 -8 -29 -45 -52 -57 -36 -93
-40 -93 -12 0 31 -16 34 -65 12 -25 -11 -45 -18 -45 -15 0 10 159 107 268 163
119 60 292 134 389 166 29 9 56 21 59 27 13 21 -88 -2 -253 -57 -90 -30 -167
-55 -170 -55 -3 0 0 7 7 15 19 23 110 72 186 101 149 56 318 191 212 170 -17
-3 -29 -3 -25 0 16 16 85 23 224 21 130 -2 155 -5 170 -20z m403 -87 c0 -5 -7
-10 -15 -10 -8 0 -15 5 -15 10 0 6 7 10 15 10 8 0 15 -4 15 -10z m-35 -189
c17 -10 50 -52 76 -97 54 -92 139 -259 139 -274 0 -14 -36 -13 -126 6 -89 18
-104 27 -104 60 0 31 -50 165 -88 239 -30 55 -31 61 -15 73 25 18 83 15 118
-7z m-4625 -46 c0 -9 -9 -15 -25 -15 -24 0 -32 10 -18 23 12 13 43 7 43 -8z
m-140 -35 c0 -15 -7 -20 -25 -20 -24 0 -34 18 -18 33 15 15 43 7 43 -13z
m4025 10 c-3 -5 -13 -10 -21 -10 -8 0 -12 5 -9 10 3 6 13 10 21 10 8 0 12 -4
9 -10z m-2943 -25 c117 -24 140 -54 41 -55 -49 0 -69 -21 -122 -127 -38 -76
-39 -98 -6 -119 39 -25 30 -34 -34 -34 -76 0 -111 13 -111 41 0 34 40 179 60
218 24 47 67 86 100 90 3 0 35 -6 72 -14z m2784 -21 c-24 -14 -132 -54 -143
-54 -11 0 0 19 15 23 9 3 42 14 72 26 65 24 97 27 56 5z m189 -4 c-10 -11 -25
-20 -33 -20 -12 0 -12 4 3 20 10 11 25 20 33 20 12 0 12 -4 -3 -20z m-4214
-31 l19 23 0 -28 c0 -40 -10 -74 -22 -74 -10 0 -48 78 -47 100 0 8 7 2 16 -14
l16 -30 18 23z m3889 -129 c13 -9 13 -11 0 -20 -36 -23 -130 -24 -130 -1 0 23
102 39 130 21z m-998 -220 c-91 -82 -406 -246 -627 -328 -206 -76 -215 -70
-15 11 235 95 383 175 569 309 69 50 97 66 105 57 8 -8 -1 -21 -32 -49z m2272
1 c24 -10 52 -31 63 -47 49 -70 227 -392 244 -443 11 -30 31 -67 45 -82 l26
-27 -34 -25 c-18 -14 -56 -39 -85 -55 -53 -32 -62 -30 -76 11 -4 10 -62 116
-130 235 -170 299 -219 390 -215 402 2 5 27 -7 55 -27 29 -20 55 -34 58 -31 3
3 -15 30 -40 61 -25 31 -45 58 -45 60 0 9 92 -13 134 -32z m-1354 -39 c0 -11
-27 -93 -59 -183 -32 -90 -82 -243 -110 -339 -67 -229 -81 -255 -154 -298 -60
-35 -110 -82 -150 -142 -22 -34 -25 -35 -91 -38 -77 -3 -104 10 -72 34 11 8
34 14 50 14 63 0 57 16 -15 39 l-71 23 6 40 c12 72 32 108 66 114 22 5 29 11
26 23 -3 9 -14 61 -25 116 -12 55 -31 136 -43 179 l-22 79 31 26 c43 36 155
102 303 180 123 64 308 151 323 151 4 0 7 -8 7 -18z m-180 -16 c0 -3 -4 -8
-10 -11 -5 -3 -10 -1 -10 4 0 6 5 11 10 11 6 0 10 -2 10 -4z m-3114 -101 c103
-30 179 -62 195 -81 9 -10 5 -24 -15 -58 -14 -25 -26 -51 -26 -58 0 -27 -21
-88 -30 -88 -6 0 -16 16 -25 36 -18 44 -33 40 -63 -14 -13 -23 -27 -42 -32
-42 -9 0 -111 207 -130 264 -14 44 -8 66 19 66 10 0 58 -11 107 -25z m2174
-84 c0 -12 -20 -25 -27 -18 -7 7 6 27 18 27 5 0 9 -4 9 -9z m-1875 -25 c19
-14 19 -15 -7 -26 -17 -8 -33 -30 -47 -61 -21 -50 -39 -66 -67 -55 -13 5 -12
11 8 48 13 23 39 51 58 62 l35 21 -27 3 c-16 2 -28 8 -28 13 0 14 54 11 75 -5z
m2098 -53 c3 -5 -12 -37 -34 -72 -21 -35 -46 -84 -55 -110 -9 -25 -21 -57 -27
-71 -6 -14 -11 -36 -12 -49 -1 -26 -40 -64 -114 -112 -54 -35 -57 -35 -64 -8
-3 12 -10 20 -16 18 -10 -4 -105 -83 -340 -284 -110 -95 -137 -132 -84 -119
15 4 73 24 128 45 58 23 103 35 108 30 13 -13 -1 -31 -24 -31 -11 0 -75 -21
-142 -46 -67 -26 -141 -51 -164 -58 -34 -9 -60 -31 -150 -131 -181 -198 -404
-421 -409 -408 -8 19 9 43 117 164 135 151 151 174 189 271 69 173 107 237
190 318 128 125 501 430 702 573 93 66 187 103 201 80z m145 -45 c-6 -17 -36
-34 -45 -24 -4 4 1 14 11 22 24 17 39 18 34 2z m-1098 -83 c0 -7 -153 -95
-164 -95 -19 0 20 30 84 65 63 34 80 40 80 30z m-1131 -66 c36 -6 71 -16 76
-21 15 -15 -149 -1 -188 16 l-32 14 39 1 c22 1 69 -4 105 -10z m281 -142 c0
-8 -9 -22 -20 -32 -22 -20 -27 -7 -10 26 12 22 30 25 30 6z m-449 -38 c86 -29
122 -85 79 -124 -17 -15 -163 -63 -210 -68 -24 -3 -17 59 16 135 32 74 44 80
115 57z m2244 -38 c10 -31 -6 -52 -59 -77 -37 -17 -53 -20 -63 -12 -30 24 -4
68 55 95 40 17 60 15 67 -6z m-1657 -56 c57 -61 36 -74 -41 -25 -32 20 -47 36
-47 51 0 18 4 20 28 15 15 -4 42 -22 60 -41z m1506 -170 c-4 -8 -10 -12 -15
-9 -11 6 -2 24 11 24 5 0 7 -7 4 -15z m-1957 -114 c34 -67 60 -90 148 -131 94
-44 169 -100 209 -159 44 -63 29 -69 -96 -38 -57 14 -125 28 -153 32 -27 3
-66 11 -86 17 -31 9 -42 7 -89 -17 -43 -22 -58 -25 -72 -16 -22 14 -83 14
-109 1 -16 -9 -21 -7 -29 15 -6 15 -10 53 -10 85 0 54 4 64 53 137 64 96 104
125 167 121 42 -3 46 -6 67 -47z m6987 -77 c9 -3 16 -10 16 -16 0 -10 -126
-174 -141 -184 -7 -4 -9 21 -8 68 1 40 -1 82 -5 94 -6 16 -2 23 16 31 25 13
97 17 122 7z m86 -13 c0 -14 -18 -23 -30 -16 -6 4 -8 11 -5 16 8 12 35 12 35
0z m-5905 -226 c-65 -85 -97 -116 -75 -75 35 68 123 177 128 160 2 -6 -22 -44
-53 -85z m947 50 c-5 -43 -28 -74 -69 -91 -61 -26 -79 -1 -48 71 16 39 44 55
90 52 27 -2 30 -5 27 -32z m-177 -129 c8 -13 13 -31 9 -40 -7 -17 -24 -22 -24
-6 0 6 -17 10 -38 10 -41 0 -62 14 -62 42 0 15 9 18 50 18 41 0 52 -4 65 -24z
m-154 -18 c6 -13 23 -35 37 -50 l26 -28 -95 0 c-52 0 -117 -3 -145 -6 l-52 -7
6 28 c5 26 3 27 -22 21 -20 -5 -26 -3 -26 9 0 9 -4 13 -10 10 -5 -3 -10 -15
-10 -26 0 -25 -37 -61 -58 -57 -9 2 -17 8 -17 13 -1 6 -6 20 -13 33 -12 21
-10 23 35 43 70 30 97 33 112 15 11 -13 16 -14 29 -4 14 12 81 24 154 27 29 1
40 -4 49 -21z m799 -48 c8 -5 12 -12 9 -15 -8 -8 -39 5 -39 16 0 11 11 11 30
-1z m-1550 -13 c0 -7 -35 -54 -77 -104 -96 -111 -228 -343 -205 -357 4 -2 52
-7 107 -10 76 -6 113 -13 153 -32 54 -26 59 -35 42 -78 -12 -33 -40 -33 -70
-1 -30 31 -73 32 -190 5 -106 -25 -155 -41 -298 -93 l-113 -41 -66 66 c-41 41
-64 72 -60 80 4 11 33 17 114 22 160 10 293 39 318 70 11 14 56 92 100 173 66
122 94 163 159 231 43 45 80 82 82 82 2 0 4 -6 4 -13z m-930 -28 c49 -8 60
-14 102 -61 l48 -53 -38 -8 c-20 -5 -82 -12 -137 -16 -89 -7 -114 -13 -220
-58 -120 -51 -190 -75 -198 -67 -2 2 0 32 5 66 8 62 9 63 91 140 l82 77 105
-5 c58 -3 130 -10 160 -15z m-70 -290 c132 -30 145 -39 84 -59 -45 -15 -70 -8
-119 35 -43 37 -37 41 35 24z m-77 -46 c74 -52 70 -67 -27 -93 -29 -8 -77 -35
-119 -67 -73 -55 -94 -63 -103 -39 -7 18 10 50 53 101 36 44 132 125 147 125
6 0 27 -12 49 -27z m607 24 c0 -2 -12 -14 -27 -28 -24 -22 -24 -13 0 19 8 11
27 17 27 9z m2040 -114 c36 -6 60 -19 60 -34 0 -5 -34 -9 -75 -9 -58 0 -77 3
-81 15 -9 23 16 48 40 40 12 -4 37 -9 56 -12z m-852 -39 c28 -19 29 -62 2
-115 -25 -47 -68 -76 -129 -85 -36 -6 -47 -3 -58 12 -40 54 18 163 102 192 43
15 57 14 83 -4z m380 -52 c3 -9 -2 -13 -14 -10 -9 1 -19 9 -22 16 -3 9 2 13
14 10 9 -1 19 -9 22 -16z m-68 -82 c-22 -41 -192 -189 -251 -219 -34 -17 -65
-29 -67 -26 -13 13 22 58 67 85 31 19 53 41 59 59 7 20 19 31 39 35 37 9 102
61 114 94 9 24 10 24 29 7 14 -13 17 -22 10 -35z m-792 -12 c7 -35 -43 -34
-65 0 -10 17 -8 19 25 17 25 0 38 -6 40 -17z m3993 -149 c131 -89 153 -109
120 -109 -12 0 -91 16 -175 35 -85 19 -164 35 -175 35 -44 0 -37 39 21 112
l29 38 32 -17 c18 -8 84 -51 148 -94z m-3691 17 c0 -3 -4 -8 -10 -11 -5 -3
-10 -1 -10 4 0 6 5 11 10 11 6 0 10 -2 10 -4z m139 -138 c10 -27 6 -38 -15
-38 -17 0 -28 24 -20 45 8 22 25 18 35 -7z m3467 -24 c104 -14 193 -29 198
-34 9 -9 -25 -16 -289 -59 -104 -17 -193 -27 -198 -22 -4 4 7 38 25 75 25 51
37 66 54 66 12 0 107 -11 210 -26z m-5162 -40 c5 -14 -39 -24 -105 -24 -44 0
-48 2 -38 18 8 13 25 17 75 17 38 0 66 -5 68 -11z m1642 5 c7 -12 -22 -46 -32
-37 -8 9 5 48 16 48 5 0 12 -5 16 -11z m3848 -60 c8 -12 13 -34 11 -48 -22
-127 -59 -320 -66 -338 -11 -28 -38 -29 -329 -8 -319 23 -348 34 -337 119 9
66 52 154 81 167 23 11 570 126 608 128 9 1 24 -9 32 -20z m1816 -62 c0 -8 -9
-22 -20 -32 -11 -10 -20 -27 -20 -37 0 -16 3 -17 22 -7 26 14 145 6 161 -10
19 -19 -16 -43 -75 -52 -30 -5 -58 -16 -65 -26 -12 -15 -15 -15 -37 6 -33 31
-76 23 -76 -14 0 -13 5 -27 10 -30 17 -10 11 -22 -12 -29 -36 -9 -46 13 -50
109 -2 76 -1 89 12 86 53 -14 61 -12 95 18 39 33 55 39 55 18z m647 -3 c3 -9
-9 -54 -28 -100 l-34 -84 -20 25 c-16 21 -37 29 -107 42 -49 8 -88 19 -88 23
0 4 44 27 98 50 53 22 106 45 117 50 31 14 55 11 62 -6z m-2286 -120 l19 -31
-45 -42 c-50 -46 -78 -54 -71 -18 17 79 29 133 33 140 7 12 42 -14 64 -49z
m2021 -38 c124 -26 165 -41 181 -67 22 -36 -67 -238 -106 -239 -11 -1 -105 27
-237 71 -131 42 -234 85 -244 101 -13 22 16 64 64 92 35 21 172 64 205 65 11
1 73 -10 137 -23z m-1792 -87 c45 -40 45 -41 10 -24 -40 20 -70 44 -70 57 0
15 15 7 60 -33z m-137 7 c6 -16 -11 -36 -30 -36 -16 0 -17 22 -1 38 16 16 25
15 31 -2z m1489 9 c9 -4 12 -19 10 -50 -5 -54 9 -75 49 -75 40 0 240 -65 314
-102 87 -44 115 -66 115 -91 -1 -33 -36 -105 -81 -163 -21 -28 -39 -54 -39
-57 0 -18 -107 -160 -159 -211 -54 -53 -62 -58 -95 -54 -30 3 -35 1 -30 -11
23 -54 18 -68 -53 -135 -38 -37 -89 -79 -114 -95 -24 -16 -64 -50 -89 -76 -25
-26 -65 -60 -89 -76 -42 -27 -46 -28 -63 -12 -17 15 -18 15 -18 -4 0 -38 -117
-122 -242 -174 -38 -15 -81 -37 -96 -48 -37 -26 -123 -54 -266 -86 -271 -60
-435 -80 -451 -55 -3 5 19 62 50 127 30 64 54 121 52 127 -4 13 -69 -91 -113
-181 -35 -71 -36 -73 -73 -73 -50 0 -200 20 -228 31 -16 6 -23 17 -23 34 0 29
0 29 -36 10 -32 -17 -80 -12 -129 13 -58 29 -59 53 -3 132 23 33 39 63 35 66
-8 8 -39 -27 -73 -83 -14 -24 -32 -43 -40 -43 -17 0 -107 44 -146 72 -36 25
-36 60 -1 107 41 55 219 267 296 353 72 82 126 122 148 113 8 -4 31 -30 52
-59 36 -50 41 -54 92 -60 29 -3 67 -3 84 0 17 4 60 1 95 -6 64 -12 66 -12 97
14 24 21 41 26 82 26 29 0 59 5 67 10 25 16 -8 31 -55 25 l-40 -6 25 20 c45
37 70 38 102 2 15 -17 28 -38 28 -45 0 -8 7 -16 15 -20 8 -3 12 -12 9 -21 -5
-13 1 -14 42 -9 59 8 63 11 74 60 7 29 5 44 -8 66 -9 15 -14 29 -11 31 2 2 24
7 48 11 l43 7 -7 -71 c-5 -48 -4 -70 4 -70 6 0 11 -11 11 -25 0 -14 2 -25 5
-25 3 0 30 14 60 31 50 28 61 31 110 24 l54 -6 49 50 c38 41 55 51 80 51 25 0
35 -6 42 -24 15 -41 30 -41 30 1 0 36 3 41 45 61 25 12 50 22 55 22 5 0 26
-25 46 -55 33 -49 54 -68 54 -48 0 3 -16 34 -35 69 -19 34 -35 67 -35 73 0 22
38 10 144 -44 59 -30 115 -55 124 -55 22 0 -35 48 -108 91 -30 18 -65 38 -77
46 l-23 13 20 38 c11 20 20 47 20 60 0 28 48 79 83 87 29 8 103 -14 260 -76
108 -43 137 -47 162 -22 16 16 16 17 0 29 -9 7 -101 33 -203 58 -102 25 -189
49 -195 55 -13 13 17 98 55 156 17 26 27 50 22 53 -5 4 -14 16 -20 27 -8 14
-25 21 -60 25 -37 4 -50 9 -52 23 -6 28 16 49 38 37 30 -16 38 -12 45 23 11
48 13 51 37 42z m-2497 -94 c-3 -6 -11 -11 -17 -11 -6 0 -6 6 2 15 14 17 26
13 15 -4z m430 -60 c36 -6 38 -8 20 -18 -28 -15 -413 -123 -440 -123 -37 0
-48 23 -40 85 l6 54 102 4 c204 6 313 6 352 -2z m210 -41 c4 -6 -35 -51 -87
-101 -76 -74 -110 -99 -187 -137 -92 -46 -93 -47 -58 -50 21 -2 37 -7 37 -11
0 -10 -308 -311 -318 -311 -17 0 -47 68 -53 120 -4 30 -12 73 -18 95 -12 47
-15 202 -3 209 7 4 165 54 527 167 95 29 150 36 160 19z m12 -85 c-4 -8 -11
-15 -17 -15 -14 0 -13 27 3 33 16 6 21 1 14 -18z m-717 -65 c0 -5 -5 -10 -11
-10 -5 0 -7 5 -4 10 3 6 8 10 11 10 2 0 4 -4 4 -10z m754 -95 c18 -44 43 -96
54 -115 12 -19 22 -51 22 -70 -1 -74 -56 -173 -116 -211 -18 -11 -39 -33 -47
-48 -24 -48 -299 -371 -316 -371 -29 0 -90 59 -111 108 -11 25 -38 69 -60 97
-22 28 -51 77 -65 109 l-26 58 60 66 c33 37 133 140 223 229 129 128 175 167
218 186 30 13 66 29 80 35 14 6 31 10 38 9 8 -1 29 -38 46 -82z m128 38 c10
-9 18 -22 18 -29 0 -7 8 -20 17 -30 14 -13 15 -18 5 -22 -10 -3 -6 -12 13 -32
29 -30 26 -50 -6 -50 -23 0 -66 83 -76 145 -6 39 1 43 29 18z m78 -13 c13 -8
13 -11 -1 -25 -15 -15 -17 -15 -21 9 -6 28 -1 31 22 16z m-4641 -90 c-18 -36
-39 -46 -39 -19 0 17 32 59 45 59 10 0 8 -11 -6 -40z m4971 16 c0 -3 -4 -8
-10 -11 -5 -3 -10 -1 -10 4 0 6 5 11 10 11 6 0 10 -2 10 -4z m35 -83 c-4 -18
1 -37 19 -64 15 -21 26 -41 26 -44 0 -3 -15 -3 -33 0 -24 5 -37 2 -46 -9 -19
-22 -6 -46 24 -46 27 0 28 -1 19 -24 -9 -22 -24 -20 -57 10 l-29 25 16 46 c9
26 16 58 16 73 0 31 27 73 41 64 6 -3 8 -18 4 -31z m-315 -43 c0 -5 -2 -10 -4
-10 -3 0 -8 5 -11 10 -3 6 -1 10 4 10 6 0 11 -4 11 -10z m782 -77 c2 -17 12
-32 27 -39 13 -7 26 -16 30 -21 3 -4 26 -22 50 -38 48 -32 37 -46 -20 -26 -16
6 -44 8 -61 4 -30 -6 -30 -5 -23 26 5 22 2 39 -9 56 -18 27 -21 65 -7 65 5 0
11 -12 13 -27z m-290 -23 c40 0 51 -7 83 -50 29 -39 31 -62 9 -85 -22 -21 -32
-10 -36 40 -3 36 -6 40 -38 48 -19 4 -46 11 -60 14 -31 8 -64 38 -55 52 4 8
15 6 35 -4 16 -8 44 -15 62 -15z m-5967 -20 c-3 -5 -11 -10 -16 -10 -6 0 -7 5
-4 10 3 6 11 10 16 10 6 0 7 -4 4 -10z m-105 -50 c-24 -15 -37 -11 -16 5 11 8
22 12 25 9 3 -3 -1 -9 -9 -14z m-2616 -19 c8 -12 -18 -21 -62 -21 -42 0 -33
16 13 23 17 2 33 5 37 6 4 0 9 -3 12 -8z m2546 -15 c0 -2 -57 -38 -127 -79
-71 -41 -143 -87 -162 -101 -43 -32 -51 -32 -51 -2 0 19 8 27 38 37 20 6 42
15 47 19 16 13 239 130 248 130 4 0 7 -2 7 -4z m-1285 -323 c-6 -60 -33 -206
-51 -277 -8 -34 -32 -33 -39 2 -4 15 -10 35 -16 44 -5 10 -9 27 -9 39 0 26
-16 57 -48 91 -22 24 -24 30 -13 55 28 67 92 111 160 113 23 0 23 -1 16 -67z
m-1406 30 c17 -33 18 -68 1 -64 -8 2 -31 5 -51 5 -38 2 -72 22 -66 39 4 12 62
35 89 36 10 1 21 -7 27 -16z m2586 -3 c3 -5 -3 -10 -14 -10 -12 0 -21 5 -21
10 0 6 6 10 14 10 8 0 18 -4 21 -10z m-1365 -11 c0 -19 -34 -69 -46 -69 -7 0
-14 7 -18 15 -3 9 -18 15 -37 15 -27 0 -30 2 -19 15 22 27 120 46 120 24z
m-148 -85 c73 -23 78 -38 33 -84 -41 -42 -55 -43 -55 -5 0 20 -6 24 -42 30
-69 11 -78 15 -78 39 0 48 35 53 142 20z m-1367 -82 c-2 -3 -11 -2 -20 1 -18
8 -21 67 -2 86 10 10 13 3 19 -36 4 -26 5 -49 3 -51z m810 69 c-3 -6 -11 -11
-17 -11 -6 0 -6 6 2 15 14 17 26 13 15 -4z m675 -76 c0 -9 7 -18 15 -21 8 -4
15 -11 15 -16 0 -5 14 -43 30 -85 33 -82 37 -136 16 -188 -24 -56 -46 -46 -46
21 0 82 -24 112 -93 116 -62 4 -64 14 -11 90 19 28 34 56 34 62 0 14 20 36 32
36 4 0 8 -7 8 -15z m-239 -16 c25 -13 16 -29 -17 -29 -23 0 -32 18 -17 33 8 9
11 9 34 -4z m-1086 -9 c-3 -5 -11 -10 -16 -10 -6 0 -7 5 -4 10 3 6 11 10 16
10 6 0 7 -4 4 -10z m5 -459 c0 -6 -4 -13 -10 -16 -5 -3 -10 1 -10 9 0 9 5 16
10 16 6 0 10 -4 10 -9z m170 -167 c0 -15 -87 -61 -96 -51 -6 5 76 66 89 67 4
0 7 -7 7 -16z m-10 -105 c0 -17 -5 -40 -11 -51 -11 -20 -128 -79 -181 -92 -26
-6 -28 -4 -28 23 0 55 15 78 57 84 21 4 63 20 93 36 30 17 58 30 63 31 4 0 7
-14 7 -31z m-244 -56 c-15 -95 -25 -112 -79 -143 -47 -27 -49 -30 -18 -24 22
5 36 3 41 -6 9 -14 -22 -135 -46 -183 -21 -40 -103 -127 -120 -127 -7 0 -32
18 -54 39 l-41 39 22 44 c27 54 75 124 111 163 15 17 45 57 67 90 41 62 108
145 118 145 3 0 3 -17 -1 -37z m515 -53 c37 -20 23 -56 -59 -148 l-32 -37 -25
28 c-25 28 -59 123 -49 138 3 5 15 7 27 4 12 -2 36 2 52 9 37 18 61 19 86 6z
m-331 -38 c0 -4 -48 -52 -107 -107 -94 -87 -108 -97 -111 -77 -4 29 24 126 40
140 15 12 135 51 161 51 9 1 17 -2 17 -7z m70 -77 c0 -72 -19 -170 -55 -290
-29 -94 -29 -95 -12 -95 6 0 23 19 37 41 23 38 152 159 169 159 4 0 16 -9 26
-19 16 -19 16 -24 -11 -107 -20 -61 -37 -93 -54 -106 -43 -31 -244 -68 -276
-50 -15 8 -12 13 25 37 62 42 42 41 -37 -1 l-70 -37 -48 24 c-60 30 -65 54
-33 161 19 65 29 80 98 152 97 100 221 207 232 200 5 -3 9 -34 9 -69z m680
-74 c0 -8 -43 -41 -55 -41 -7 0 -6 35 2 43 10 10 53 8 53 -2z m-1210 -9 c0
-15 -62 -82 -71 -77 -16 10 -10 38 13 62 20 22 58 32 58 15z m585 -118 c-27
-24 -55 -44 -61 -44 -14 0 -3 56 22 121 l17 41 36 -37 36 -36 -50 -45z m165
95 c-7 -11 -14 -18 -17 -15 -8 8 5 36 17 36 7 0 7 -6 0 -21z m116 -1 c37 -16
69 -22 127 -22 63 -1 77 -3 75 -16 -5 -26 -51 -40 -136 -40 -104 0 -157 19
-147 52 7 21 24 48 30 48 1 0 24 -10 51 -22z m-17 -189 c17 -6 31 -15 31 -21
0 -13 -88 -51 -100 -43 -11 7 -13 35 -4 59 7 19 29 20 73 5z"/>
<path d="M6711 6295 c-100 -50 -178 -96 -190 -111 -22 -28 -28 -74 -11 -74 23
0 150 76 156 93 4 11 16 17 38 17 20 0 40 8 51 20 10 11 21 17 26 15 17 -11
90 28 104 56 17 32 20 69 6 69 -6 0 -86 -38 -180 -85z"/>
<path d="M6610 6102 c-122 -61 -140 -80 -126 -136 10 -39 36 -33 164 35 l112
60 0 49 c0 41 -3 50 -17 50 -10 0 -70 -26 -133 -58z"/>
<path d="M6588 5799 c-36 -20 -9 -89 34 -89 20 0 32 55 18 81 -12 21 -26 23
-52 8z"/>
<path d="M6455 5690 c-8 -13 4 -32 16 -25 12 8 12 35 0 35 -6 0 -13 -4 -16
-10z"/>
<path d="M3756 6202 c-3 -6 -1 -14 5 -17 15 -10 25 3 12 16 -7 7 -13 7 -17 1z"/>
<path d="M4027 5253 c-4 -3 -7 -11 -7 -17 0 -6 5 -5 12 2 6 6 9 14 7 17 -3 3
-9 2 -12 -2z"/>
<path d="M11226 3785 c-3 -9 1 -18 10 -22 19 -7 28 2 21 22 -8 19 -23 19 -31
0z"/>
<path d="M11101 2773 c12 -32 28 -53 40 -53 5 0 -3 18 -17 40 -31 47 -37 50
-23 13z"/>
<path d="M10890 2698 c0 -13 5 -30 10 -38 7 -11 10 -7 10 17 0 17 -4 35 -10
38 -6 3 -10 -4 -10 -17z"/>
<path d="M10140 2681 c-14 -27 9 -40 27 -16 17 24 17 35 -2 35 -8 0 -19 -9
-25 -19z"/>
<path d="M10120 2599 c-10 -18 -9 -20 12 -17 12 2 24 11 26 21 5 24 -25 22
-38 -4z"/>
<path d="M10051 2469 c-20 -32 -27 -59 -16 -59 8 0 47 82 41 87 -3 3 -14 -10
-25 -28z"/>
<path d="M9185 2701 c-81 -33 -195 -98 -195 -111 0 -5 4 -11 9 -15 11 -6 271
134 271 147 0 12 -9 10 -85 -21z"/>
<path d="M1590 1350 c0 -5 5 -10 11 -10 5 0 7 5 4 10 -3 6 -8 10 -11 10 -2 0
-4 -4 -4 -10z"/>
<path d="M4590 9786 c0 -7 122 -48 127 -42 8 8 -77 46 -104 46 -13 0 -23 -2
-23 -4z"/>
<path d="M8442 8309 c6 -18 210 -201 217 -194 7 8 -92 107 -163 162 -32 26
-57 40 -54 32z"/>
<path d="M9055 6060 c3 -5 8 -10 11 -10 2 0 4 5 4 10 0 6 -5 10 -11 10 -5 0
-7 -4 -4 -10z"/>
<path d="M11299 5210 c-9 -5 -51 -65 -94 -132 -98 -155 -160 -249 -206 -313
-20 -27 -41 -66 -47 -85 l-12 -35 31 35 c25 28 263 377 342 500 19 30 12 44
-14 30z"/>
<path d="M9144 5092 c-84 -73 -102 -102 -62 -102 13 0 32 6 43 14 26 18 127
48 134 40 3 -4 2 -8 -4 -11 -31 -12 -149 -90 -150 -98 0 -5 12 -11 27 -13 25
-3 26 -6 21 -39 -5 -29 -3 -35 8 -31 11 5 183 129 198 144 3 2 -5 14 -15 27
-11 12 -28 34 -37 50 -10 15 -26 27 -37 27 -21 0 -27 15 -10 25 19 12 10 35
-14 35 -15 0 -53 -25 -102 -68z"/>
<path d="M10880 5085 c-8 -9 -8 -15 -2 -15 12 0 26 19 19 26 -2 2 -10 -2 -17
-11z"/>
<path d="M9303 4919 c-23 -11 -62 -38 -85 -59 l-43 -38 25 -47 c34 -63 46 -72
73 -55 12 8 55 32 96 55 94 51 104 65 70 102 -14 15 -29 36 -32 46 -9 23 -52
22 -104 -4z"/>
<path d="M10671 4851 c-13 -3 -32 -18 -43 -31 -20 -28 -41 -90 -29 -90 7 0 90
93 105 118 8 13 4 14 -33 3z"/>
<path d="M10483 4816 c-16 -34 -13 -66 7 -66 13 0 30 43 30 76 0 34 -18 30
-37 -10z"/>
<path d="M10807 4833 c-11 -10 -8 -53 3 -53 6 0 10 14 10 30 0 31 -2 35 -13
23z"/>
<path d="M9372 4751 c-84 -34 -102 -46 -102 -72 0 -14 7 -19 25 -19 22 0 24
-3 15 -19 -32 -60 4 -66 69 -13 25 22 65 52 89 67 35 23 42 33 40 54 -4 37
-46 38 -136 2z"/>
<path d="M9821 4710 c13 -22 26 -40 31 -40 13 0 10 12 -12 48 -28 46 -46 40
-19 -8z"/>
<path d="M9455 4653 c-65 -34 -125 -81 -125 -99 0 -19 35 -18 66 2 35 24 42 9
11 -24 -27 -28 -36 -62 -16 -62 15 0 203 110 211 123 12 19 -22 30 -58 19 -42
-13 -44 -3 -3 21 73 41 -8 61 -86 20z"/>
<path d="M11560 4669 c-43 -17 -78 -59 -50 -59 15 0 90 51 90 61 0 11 -8 11
-40 -2z"/>
<path d="M10868 4563 c-37 -36 -58 -37 -58 -2 0 10 -4 19 -9 19 -13 0 -21 -38
-21 -102 0 -31 -4 -60 -10 -63 -5 -3 -10 -17 -10 -31 0 -14 -6 -24 -14 -24 -8
0 -27 -11 -42 -25 -15 -14 -31 -25 -35 -25 -12 0 -11 -47 1 -55 5 -3 23 10 41
30 25 27 40 35 66 35 30 0 33 2 23 20 -11 21 17 91 81 198 17 29 30 55 27 57
-2 2 -20 -12 -40 -32z"/>
<path d="M11383 4463 c-39 -48 -91 -118 -117 -154 -25 -36 -52 -72 -60 -78 -8
-7 -20 -28 -27 -48 -17 -52 -1 -60 59 -29 28 14 165 73 305 130 290 119 407
173 407 186 0 14 7 16 -152 -45 -192 -75 -217 -85 -406 -172 -105 -48 -167
-72 -173 -66 -7 7 3 28 27 59 150 196 215 286 212 295 -2 6 -35 -29 -75 -78z"/>
<path d="M9567 4529 c-56 -13 -144 -57 -151 -75 -9 -22 1 -34 30 -34 24 0 32
-14 14 -25 -13 -8 -13 -45 1 -45 12 0 178 117 196 138 17 21 -2 52 -30 51 -12
-1 -39 -5 -60 -10z"/>
<path d="M11165 4508 c-44 -17 -75 -33 -68 -35 11 -4 163 55 163 63 0 8 -15 3
-95 -28z"/>
<path d="M10959 4460 c-18 -22 -41 -42 -52 -46 -11 -4 -35 -13 -54 -20 -33
-14 -33 -15 -17 -39 19 -29 30 -32 36 -7 5 18 15 24 113 69 l60 27 -38 4 c-38
3 -38 3 -22 28 24 37 10 28 -26 -16z"/>
<path d="M10797 4283 c-4 -3 -7 -11 -7 -17 0 -6 5 -5 12 2 6 6 9 14 7 17 -3 3
-9 2 -12 -2z"/>
<path d="M10840 4260 c0 -5 5 -10 10 -10 6 0 10 5 10 10 0 6 -4 10 -10 10 -5
0 -10 -4 -10 -10z"/>
<path d="M11850 4219 c-124 -40 -526 -159 -536 -159 -15 0 -54 -44 -54 -61 0
-27 11 -29 53 -8 22 12 171 65 331 119 335 113 326 109 326 121 0 14 -59 8
-120 -12z"/>
<path d="M9890 4217 c-36 -18 -66 -82 -52 -113 22 -47 107 -39 131 12 24 54 5
114 -37 114 -9 0 -28 -6 -42 -13z"/>
<path d="M11153 4065 c-39 -17 -47 -55 -12 -55 36 0 89 31 89 51 0 23 -30 25
-77 4z"/>
<path d="M11197 3973 c-9 -9 -8 -25 2 -42 8 -12 12 -12 25 -2 22 19 21 51 -2
51 -10 0 -22 -3 -25 -7z"/>
<path d="M1115 2231 c-16 -10 -43 -33 -60 -50 -25 -27 -30 -41 -33 -98 -5 -80
10 -79 34 4 13 43 28 67 65 103 27 26 49 50 49 54 0 12 -25 6 -55 -13z"/>
<path d="M1112 1933 c-7 -3 -19 -18 -27 -33 -14 -27 -14 -30 12 -50 26 -20 28
-21 41 -3 14 20 13 85 -3 89 -5 1 -16 0 -23 -3z"/>
<path d="M1023 1814 c-9 -24 20 -109 37 -109 21 0 24 58 5 94 -17 34 -32 39
-42 15z"/>
</g>
</svg>
